<svg xmlns="http://www.w3.org/2000/svg" width="19.997" height="18.362" viewBox="0 0 19.997 18.362">
  <path id="Tracé_3515" data-name="Tracé 3515" d="M-126.68,268.027h-3.9V255.552h3.9Zm-2.049-14.035h-.028a2.163,2.163,0,0,1-2.324-2.161,2.186,2.186,0,0,1,2.381-2.166,2.174,2.174,0,0,1,2.35,2.162A2.181,2.181,0,0,1-128.729,253.992Zm17.645,14.035h-4.421v-6.456c0-1.69-.69-2.842-2.21-2.842a2.23,2.23,0,0,0-2.11,1.529,2.862,2.862,0,0,0-.1,1.019v6.75h-4.38s.058-11.434,0-12.475h4.38v1.958c.259-.856,1.657-2.078,3.891-2.078,2.77,0,4.946,1.8,4.946,5.658Z" transform="translate(131.082 -249.665)" fill="#fff"/>
</svg>
