<svg xmlns="http://www.w3.org/2000/svg" width="20.031" height="16.278" viewBox="0 0 20.031 16.278">
  <path id="Tracé_3514" data-name="Tracé 3514" d="M-158.561,254a8.2,8.2,0,0,1-2.36.647,4.11,4.11,0,0,0,1.806-2.273,8.211,8.211,0,0,1-2.61,1,4.1,4.1,0,0,0-3-1.3,4.109,4.109,0,0,0-4.108,4.109,4.029,4.029,0,0,0,.106.936,11.664,11.664,0,0,1-8.471-4.3,4.1,4.1,0,0,0-.556,2.068,4.108,4.108,0,0,0,1.828,3.42,4.108,4.108,0,0,1-1.862-.513v.051a4.11,4.11,0,0,0,3.3,4.029,4.021,4.021,0,0,1-1.084.145,4.068,4.068,0,0,1-.772-.073,4.108,4.108,0,0,0,3.839,2.852,8.246,8.246,0,0,1-5.1,1.76,8.431,8.431,0,0,1-.981-.056,11.648,11.648,0,0,0,6.3,1.845A11.612,11.612,0,0,0-160.6,256.661c0-.179,0-.357-.012-.533A8.318,8.318,0,0,0-158.561,254" transform="translate(178.592 -252.074)" fill="#fff"/>
</svg>
