<svg xmlns="http://www.w3.org/2000/svg" width="20.942" height="17.881" viewBox="0 0 20.942 17.881">
  <path id="Tracé_999" data-name="Tracé 999" d="M-21.307,252.775v3.991a1.385,1.385,0,0,1-.326.284.641.641,0,0,1-.307.116.26.26,0,0,1-.211-.084.4.4,0,0,1-.075-.275v-4.033H-23.3v4.391a1.1,1.1,0,0,0,.19.707.676.676,0,0,0,.56.233,1.45,1.45,0,0,0,.633-.158,2.328,2.328,0,0,0,.612-.5v.58h1.077v-5.257Zm-3.283.254a1.556,1.556,0,0,0-1.1-.39,1.791,1.791,0,0,0-1.172.369,1.2,1.2,0,0,0-.432.971V256.7a1.408,1.408,0,0,0,.421,1.066,1.616,1.616,0,0,0,1.13.4,1.6,1.6,0,0,0,1.15-.392,1.326,1.326,0,0,0,.422-1.055v-2.711A1.285,1.285,0,0,0-24.589,253.029Zm-.676,3.779a.436.436,0,0,1-.127.328.465.465,0,0,1-.347.126.421.421,0,0,1-.328-.126.463.463,0,0,1-.117-.328v-2.871a.33.33,0,0,1,.127-.273.442.442,0,0,1,.318-.106.535.535,0,0,1,.347.106.323.323,0,0,1,.127.273Zm-3.336-5.9-.747,2.851h-.086l-.781-2.851h-1.224l1.447,4.306v2.818h1.213v-2.955l1.4-4.169Zm8.393,12.551a.733.733,0,0,1,.095.421v.485h-.835v-.485a.647.647,0,0,1,.1-.421.381.381,0,0,1,.328-.138A.375.375,0,0,1-20.208,263.458Zm-3.315-.021a.352.352,0,0,0-.3-.127.453.453,0,0,0-.2.042.809.809,0,0,0-.2.148v2.976a.773.773,0,0,0,.231.169.564.564,0,0,0,.222.054.3.3,0,0,0,.264-.106.508.508,0,0,0,.085-.328V263.8A.519.519,0,0,0-23.523,263.437Zm0,0a.352.352,0,0,0-.3-.127.453.453,0,0,0-.2.042.809.809,0,0,0-.2.148v2.976a.773.773,0,0,0,.231.169.564.564,0,0,0,.222.054.3.3,0,0,0,.264-.106.508.508,0,0,0,.085-.328V263.8A.519.519,0,0,0-23.523,263.437Zm5.415-3.684H-33.075a3.007,3.007,0,0,0-2.988,3V265.8a3,3,0,0,0,2.988,2.987h14.967a3,3,0,0,0,2.987-2.987V262.75A3.007,3.007,0,0,0-18.108,259.753Zm-10.935,2.1h-1.119v5.532H-31.24v-5.532h-1.107v-.938h3.3Zm3.145,5.532h-.96v-.528a1.763,1.763,0,0,1-.548.443,1.124,1.124,0,0,1-.55.159.6.6,0,0,1-.506-.223,1.029,1.029,0,0,1-.159-.633v-4h.951v3.674a.381.381,0,0,0,.064.241.21.21,0,0,0,.19.075.481.481,0,0,0,.265-.106.966.966,0,0,0,.294-.254V262.6h.96Zm3.462-.992a1.208,1.208,0,0,1-.222.781.8.8,0,0,1-.654.275,1.091,1.091,0,0,1-.5-.1,1.326,1.326,0,0,1-.41-.328v.369h-.962v-6.471h.962v2.078a1.482,1.482,0,0,1,.41-.326.975.975,0,0,1,.443-.116.831.831,0,0,1,.687.305,1.408,1.408,0,0,1,.243.888Zm3.315-1.277h-1.827v.9a.992.992,0,0,0,.086.518.349.349,0,0,0,.326.146.379.379,0,0,0,.328-.127.982.982,0,0,0,.095-.538v-.222h.992v.243a1.5,1.5,0,0,1-.371,1.108,1.376,1.376,0,0,1-1.065.371,1.306,1.306,0,0,1-1.015-.392,1.547,1.547,0,0,1-.368-1.087V263.89a1.34,1.34,0,0,1,.412-1.013,1.445,1.445,0,0,1,1.044-.39,1.328,1.328,0,0,1,1,.369,1.43,1.43,0,0,1,.36,1.034Zm-4.7-1.805a.453.453,0,0,0-.2.042.809.809,0,0,0-.2.148v2.976a.773.773,0,0,0,.231.169.564.564,0,0,0,.222.054.3.3,0,0,0,.264-.106.508.508,0,0,0,.085-.328V263.8a.519.519,0,0,0-.106-.36A.352.352,0,0,0-23.819,263.31Zm.3.127a.352.352,0,0,0-.3-.127.453.453,0,0,0-.2.042.809.809,0,0,0-.2.148v2.976a.773.773,0,0,0,.231.169.564.564,0,0,0,.222.054.3.3,0,0,0,.264-.106.508.508,0,0,0,.085-.328V263.8A.519.519,0,0,0-23.523,263.437Zm0,0a.352.352,0,0,0-.3-.127.453.453,0,0,0-.2.042.809.809,0,0,0-.2.148v2.976a.773.773,0,0,0,.231.169.564.564,0,0,0,.222.054.3.3,0,0,0,.264-.106.508.508,0,0,0,.085-.328V263.8A.519.519,0,0,0-23.523,263.437Z" transform="translate(36.063 -250.907)" fill="#fff"/>
</svg>
